<svg xmlns="http://www.w3.org/2000/svg" viewBox="0 0 64 64">

<g id="m"><ellipse cx="32" cy="32" rx="17" ry="22"></ellipse><rect x="25.2" y="3.0" width="13.5" height="2.1" rx="0.6"></rect><rect x="18.8" y="6.0" width="26.3" height="2.1" rx="0.6"></rect><rect x="15.1" y="9.0" width="33.9" height="2.1" rx="0.6"></rect><rect x="12.3" y="12.0" width="39.4" height="2.1" rx="0.6"></rect><rect x="10.2" y="15.0" width="43.5" height="2.1" rx="0.6"></rect><rect x="5.5" y="18.0" width="53.1" height="2.1" rx="0.6"></rect><rect x="4.1" y="21.0" width="55.8" height="2.1" rx="0.6"></rect><rect x="3.1" y="24.0" width="57.8" height="2.1" rx="0.6"></rect><rect x="2.4" y="27.0" width="59.2" height="2.1" rx="0.6"></rect><rect x="2.1" y="30.0" width="59.9" height="2.1" rx="0.6"></rect><rect x="2.0" y="33.0" width="60.0" height="2.1" rx="0.6"></rect><rect x="2.3" y="36.0" width="59.5" height="2.1" rx="0.6"></rect><rect x="2.8" y="39.0" width="58.3" height="2.1" rx="0.6"></rect><rect x="3.7" y="42.0" width="56.6" height="2.1" rx="0.6"></rect><rect x="5.0" y="45.0" width="54.1" height="2.1" rx="0.6"></rect><rect x="6.6" y="48.0" width="50.8" height="2.1" rx="0.6"></rect><rect x="11.6" y="51.0" width="40.9" height="2.1" rx="0.6"></rect><rect x="14.1" y="54.0" width="35.9" height="2.1" rx="0.6"></rect><rect x="17.4" y="57.0" width="29.2" height="2.1" rx="0.6"></rect><rect x="22.5" y="60.0" width="19.0" height="2.1" rx="0.6"></rect></g>
</svg>